<svg id="Layer_1" data-name="Layer 1" xmlns="http://www.w3.org/2000/svg" viewBox="0 0 512 512"><defs><style>.cls-1{fill:#141f38;}</style></defs><title>code-glyph</title><path class="cls-1" d="M307.34,0H115.2a64,64,0,0,0-64,64V448a64,64,0,0,0,64,64H396.8a64,64,0,0,0,64-64V153.6ZM208.8,305.82c0,7.13-1.17,8.47-6,11l-30.91,15.11v.83l30.74,14.95c5.18,2.49,6.18,3.82,6.18,11v11.46c0,6.14-1.84,7.8-7,5.15l-55.47-30c-4.17-2.49-5.51-3.82-5.51-8.3v-8.3c0-4.48,1.33-6,5.51-8.47l55.47-29.89c5.18-2.65,7-1,7,5.15Zm82.7-31.38L247.73,391.15c-1.5,4.48-3.51,5.65-8.18,5.65H226.17c-4.51,0-5.35-1.66-4-5.65l43.78-116.71c1.5-4.48,3.51-5.64,8.18-5.64h13.37C292,268.8,293,270.45,291.5,274.44Zm79.7,62.26c0,4.15-1.34,6-5.52,8.47l-55.47,29.89c-4.85,2.65-7.19,1-7.19-5V359.28c0-6.81,1.34-8.47,6.18-11l30.91-15.11v-.83l-30.74-14.95c-5.18-2.49-6.35-3.82-6.35-11V295.2c0-6.14,2.34-7.8,7.19-5.15l55.47,30c4.18,2.49,5.52,4.15,5.52,8.3ZM358.4,166.4a64,64,0,0,1-64-64V25.6L435.2,166.4Z"/></svg>